<svg width="400" height="100" viewBox="0 0 400 100" fill="none" xmlns="http://www.w3.org/2000/svg">
  <defs>
    <linearGradient id="primaryGradient" x1="0%" y1="0%" x2="100%" y2="100%">
      <stop offset="0%" style="stop-color:#667eea;stop-opacity:1" />
      <stop offset="100%" style="stop-color:#764ba2;stop-opacity:1" />
    </linearGradient>
    <linearGradient id="textGradient" x1="0%" y1="0%" x2="100%" y2="0%">
      <stop offset="0%" style="stop-color:#667eea;stop-opacity:1" />
      <stop offset="50%" style="stop-color:#764ba2;stop-opacity:1" />
      <stop offset="100%" style="stop-color:#f5576c;stop-opacity:1" />
    </linearGradient>
  </defs>

  <!-- Logo Icon (Scaled) -->
  <g transform="translate(10, 10) scale(0.4)">
    <rect x="70" y="20" width="60" height="160" rx="12" fill="url(#primaryGradient)" />
    <rect x="20" y="70" width="160" height="60" rx="12" fill="url(#primaryGradient)" />
    <circle cx="100" cy="100" r="40" fill="white" />
    <circle cx="100" cy="100" r="32" fill="#f093fb" />
    <path d="M110 82 C108 80 105 79 100 79 C92 79 88 83 88 88 C88 95 96 97 102 99 C110 102 112 106 112 112 C112 119 106 123 98 123 C92 123 88 120 85 117" stroke="white" stroke-width="8" stroke-linecap="round" fill="none" />
  </g>

  <!-- Text -->
  <text x="100" y="55" font-family="Roboto, sans-serif" font-weight="700" font-size="38" fill="url(#textGradient)">SymptoSense</text>
  <text x="102" y="80" font-family="Roboto, sans-serif" font-weight="400" font-size="14" fill="#64748b" letter-spacing="1">AI-POWERED HEALTH INTELLIGENCE</text>
</svg>
