<svg width="200" height="200" viewBox="0 0 200 200" fill="none" xmlns="http://www.w3.org/2000/svg">
  <defs>
    <linearGradient id="primaryGradient" x1="0%" y1="0%" x2="100%" y2="100%">
      <stop offset="0%" style="stop-color:#667eea;stop-opacity:1" />
      <stop offset="100%" style="stop-color:#764ba2;stop-opacity:1" />
    </linearGradient>
    <linearGradient id="secondaryGradient" x1="0%" y1="0%" x2="100%" y2="100%">
      <stop offset="0%" style="stop-color:#f093fb;stop-opacity:1" />
      <stop offset="100%" style="stop-color:#f5576c;stop-opacity:1" />
    </linearGradient>
    <linearGradient id="accentGradient" x1="0%" y1="0%" x2="100%" y2="0%">
      <stop offset="0%" style="stop-color:#06b6d4;stop-opacity:1" />
      <stop offset="100%" style="stop-color:#10b981;stop-opacity:1" />
    </linearGradient>
  </defs>
  
  <!-- Neural Network Background Pattern -->
  <path d="M30 30 L100 100 M170 30 L100 100 M30 170 L100 100 M170 170 L100 100" stroke="#667eea" stroke-width="1" stroke-opacity="0.2" />
  <circle cx="30" cy="30" r="4" fill="#667eea" fill-opacity="0.2" />
  <circle cx="170" cy="30" r="4" fill="#667eea" fill-opacity="0.2" />
  <circle cx="30" cy="170" r="4" fill="#667eea" fill-opacity="0.2" />
  <circle cx="170" cy="170" r="4" fill="#667eea" fill-opacity="0.2" />

  <!-- Confidence Monitoring Ring -->
  <circle cx="100" cy="100" r="85" stroke="#e2e8f0" stroke-width="2" />
  <path d="M100 15 A 85 85 0 0 1 185 100" stroke="url(#accentGradient)" stroke-width="4" stroke-linecap="round" />

  <!-- Medical Cross Base -->
  <rect x="70" y="20" width="60" height="160" rx="12" fill="url(#primaryGradient)" />
  <rect x="20" y="70" width="160" height="60" rx="12" fill="url(#primaryGradient)" />

  <!-- AI Core -->
  <circle cx="100" cy="100" r="40" fill="white" />
  <circle cx="100" cy="100" r="32" fill="url(#secondaryGradient)" />
  
  <!-- S Lettermark -->
  <path d="M110 82 C108 80 105 79 100 79 C92 79 88 83 88 88 C88 95 96 97 102 99 C110 102 112 106 112 112 C112 119 106 123 98 123 C92 123 88 120 85 117" stroke="white" stroke-width="8" stroke-linecap="round" fill="none" />
  
  <!-- Symptom Detection Indicators -->
  <rect x="10" y="10" width="10" height="10" rx="2" fill="#06b6d4" />
  <rect x="180" y="10" width="10" height="10" rx="2" fill="#06b6d4" />
  <rect x="10" y="180" width="10" height="10" rx="2" fill="#06b6d4" />
  <rect x="180" y="180" width="10" height="10" rx="2" fill="#06b6d4" />
</svg>
